# xmcd
#
# Track frame offsets:
# 150
# 14618
# 27371
# 42020
# 56299
# 68142
# 82185
# 94675
# 110151
# 121215
# 134311
# 147025
# 161400
# 173809
# 187281
# 199005
# 212452
# 225493
# 239453
# 252622
#
# Disc length: 3520 seconds
#
#
# Revision: 0
# Processed by: cddbd v1.5.2PL0 Copyright (c) Steve Scherf et al.
# Submitted via: FreeRIP 2.30 
#
DISCID=1a0dbe14
DTITLE=Willie Mabon - Chronological Willie Mabon 1949-1954
DYEAR=2005
DGENRE=blues
TTITLE0=Bogey Man
TTITLE1=It Keeps Raining
TTITLE2=Worry Blues
TTITLE3=I Don't Know
TTITLE4=I'm Mad
TTITLE5=Got to Have It
TTITLE6=Beggar or Bandit
TTITLE7=Night Latch
TTITLE8=You're a Fool
TTITLE9=Monday Woman
TTITLE10=I Got to Go
TTITLE11=Cruisin'
TTITLE12=I'm Tired
TTITLE13=Would You Baby?
TTITLE14=Late Again
TTITLE15=Come On Baby
TTITLE16=Lonely Blues
TTITLE17=Willie's Blues
TTITLE18=Poison Ivy
TTITLE19=Say Man
EXTD=
EXTT0=
EXTT1=
EXTT2=
EXTT3=
EXTT4=
EXTT5=
EXTT6=
EXTT7=
EXTT8=
EXTT9=
EXTT10=
EXTT11=
EXTT12=
EXTT13=
EXTT14=
EXTT15=
EXTT16=
EXTT17=
EXTT18=
EXTT19=
PLAYORDER=
